<mxfile host="app.diagrams.net" modified="2021-06-22T21:54:58.056Z" agent="5.0 (Windows NT 10.0; Win64; x64) AppleWebKit/537.36 (KHTML, like Gecko) Chrome/91.0.4472.114 Safari/537.36" etag="RZYhhvPKJIv6k_jKbvJ9" version="14.8.0" type="github">
  <diagram id="6q4tsU580tilYGmx1aum" name="Page-1">
    <mxGraphModel dx="3133" dy="1253" grid="1" gridSize="10" guides="1" tooltips="1" connect="1" arrows="1" fold="1" page="1" pageScale="1" pageWidth="850" pageHeight="1100" math="0" shadow="0">
      <root>
        <mxCell id="0" />
        <mxCell id="1" parent="0" />
        <mxCell id="iszLBZIuRHCZ7AVI4ITR-2" value="&lt;u&gt;id&lt;/u&gt;" style="ellipse;whiteSpace=wrap;html=1;" vertex="1" parent="1">
          <mxGeometry x="20" y="80" width="120" height="80" as="geometry" />
        </mxCell>
        <mxCell id="iszLBZIuRHCZ7AVI4ITR-3" value="email" style="ellipse;whiteSpace=wrap;html=1;" vertex="1" parent="1">
          <mxGeometry x="170" y="80" width="120" height="80" as="geometry" />
        </mxCell>
        <mxCell id="iszLBZIuRHCZ7AVI4ITR-4" value="phone_number" style="ellipse;whiteSpace=wrap;html=1;" vertex="1" parent="1">
          <mxGeometry x="440" y="80" width="120" height="80" as="geometry" />
        </mxCell>
        <mxCell id="iszLBZIuRHCZ7AVI4ITR-5" value="password" style="ellipse;whiteSpace=wrap;html=1;" vertex="1" parent="1">
          <mxGeometry x="305" y="80" width="120" height="80" as="geometry" />
        </mxCell>
        <mxCell id="iszLBZIuRHCZ7AVI4ITR-6" value="role" style="ellipse;whiteSpace=wrap;html=1;" vertex="1" parent="1">
          <mxGeometry x="570" y="80" width="120" height="80" as="geometry" />
        </mxCell>
        <mxCell id="iszLBZIuRHCZ7AVI4ITR-7" value="created_at" style="ellipse;whiteSpace=wrap;html=1;" vertex="1" parent="1">
          <mxGeometry x="700" y="80" width="120" height="80" as="geometry" />
        </mxCell>
        <mxCell id="iszLBZIuRHCZ7AVI4ITR-10" value="" style="endArrow=none;html=1;entryX=0.586;entryY=1.05;entryDx=0;entryDy=0;entryPerimeter=0;" edge="1" parent="1" target="iszLBZIuRHCZ7AVI4ITR-2">
          <mxGeometry width="50" height="50" relative="1" as="geometry">
            <mxPoint x="300" y="200" as="sourcePoint" />
            <mxPoint x="350" y="150" as="targetPoint" />
          </mxGeometry>
        </mxCell>
        <mxCell id="iszLBZIuRHCZ7AVI4ITR-11" value="" style="endArrow=none;html=1;entryX=0.5;entryY=1;entryDx=0;entryDy=0;" edge="1" parent="1" target="iszLBZIuRHCZ7AVI4ITR-3">
          <mxGeometry width="50" height="50" relative="1" as="geometry">
            <mxPoint x="303.04" y="200" as="sourcePoint" />
            <mxPoint x="110.00000000000004" y="165.03999999999996" as="targetPoint" />
          </mxGeometry>
        </mxCell>
        <mxCell id="iszLBZIuRHCZ7AVI4ITR-12" value="" style="endArrow=none;html=1;entryX=0.5;entryY=1;entryDx=0;entryDy=0;" edge="1" parent="1" target="iszLBZIuRHCZ7AVI4ITR-5">
          <mxGeometry width="50" height="50" relative="1" as="geometry">
            <mxPoint x="304.99999999999994" y="200" as="sourcePoint" />
            <mxPoint x="231.96" y="160" as="targetPoint" />
          </mxGeometry>
        </mxCell>
        <mxCell id="iszLBZIuRHCZ7AVI4ITR-13" value="" style="endArrow=none;html=1;entryX=0.5;entryY=1;entryDx=0;entryDy=0;" edge="1" parent="1" target="iszLBZIuRHCZ7AVI4ITR-4">
          <mxGeometry width="50" height="50" relative="1" as="geometry">
            <mxPoint x="305" y="200" as="sourcePoint" />
            <mxPoint x="365" y="160" as="targetPoint" />
          </mxGeometry>
        </mxCell>
        <mxCell id="iszLBZIuRHCZ7AVI4ITR-14" value="" style="endArrow=none;html=1;entryX=0.5;entryY=1;entryDx=0;entryDy=0;" edge="1" parent="1" target="iszLBZIuRHCZ7AVI4ITR-6">
          <mxGeometry width="50" height="50" relative="1" as="geometry">
            <mxPoint x="305" y="200" as="sourcePoint" />
            <mxPoint x="500" y="160" as="targetPoint" />
          </mxGeometry>
        </mxCell>
        <mxCell id="iszLBZIuRHCZ7AVI4ITR-15" value="" style="endArrow=none;html=1;entryX=0.442;entryY=1.038;entryDx=0;entryDy=0;entryPerimeter=0;" edge="1" parent="1" target="iszLBZIuRHCZ7AVI4ITR-7">
          <mxGeometry width="50" height="50" relative="1" as="geometry">
            <mxPoint x="305" y="200" as="sourcePoint" />
            <mxPoint x="630" y="160" as="targetPoint" />
          </mxGeometry>
        </mxCell>
        <mxCell id="iszLBZIuRHCZ7AVI4ITR-16" value="&lt;u&gt;id&lt;/u&gt;" style="ellipse;whiteSpace=wrap;html=1;" vertex="1" parent="1">
          <mxGeometry x="920" y="150" width="120" height="80" as="geometry" />
        </mxCell>
        <mxCell id="iszLBZIuRHCZ7AVI4ITR-18" value="bio" style="ellipse;whiteSpace=wrap;html=1;" vertex="1" parent="1">
          <mxGeometry x="1050" y="150" width="120" height="80" as="geometry" />
        </mxCell>
        <mxCell id="iszLBZIuRHCZ7AVI4ITR-19" value="education" style="ellipse;whiteSpace=wrap;html=1;" vertex="1" parent="1">
          <mxGeometry x="1320" y="150" width="120" height="80" as="geometry" />
        </mxCell>
        <mxCell id="iszLBZIuRHCZ7AVI4ITR-20" value="experience" style="ellipse;whiteSpace=wrap;html=1;" vertex="1" parent="1">
          <mxGeometry x="1185" y="150" width="120" height="80" as="geometry" />
        </mxCell>
        <mxCell id="iszLBZIuRHCZ7AVI4ITR-21" value="licenses_and_certifications" style="ellipse;whiteSpace=wrap;html=1;" vertex="1" parent="1">
          <mxGeometry x="1450" y="150" width="190" height="80" as="geometry" />
        </mxCell>
        <mxCell id="iszLBZIuRHCZ7AVI4ITR-22" value="skills_and_endorsements" style="ellipse;whiteSpace=wrap;html=1;" vertex="1" parent="1">
          <mxGeometry x="1650" y="150" width="270" height="80" as="geometry" />
        </mxCell>
        <mxCell id="iszLBZIuRHCZ7AVI4ITR-23" value="" style="endArrow=none;html=1;entryX=0.5;entryY=1;entryDx=0;entryDy=0;" edge="1" parent="1" target="iszLBZIuRHCZ7AVI4ITR-16">
          <mxGeometry width="50" height="50" relative="1" as="geometry">
            <mxPoint x="1180" y="270" as="sourcePoint" />
            <mxPoint x="980" y="230" as="targetPoint" />
          </mxGeometry>
        </mxCell>
        <mxCell id="iszLBZIuRHCZ7AVI4ITR-24" value="" style="endArrow=none;html=1;entryX=0.5;entryY=1;entryDx=0;entryDy=0;" edge="1" parent="1" target="iszLBZIuRHCZ7AVI4ITR-18">
          <mxGeometry width="50" height="50" relative="1" as="geometry">
            <mxPoint x="1183.04" y="270" as="sourcePoint" />
            <mxPoint x="990" y="235.03999999999996" as="targetPoint" />
          </mxGeometry>
        </mxCell>
        <mxCell id="iszLBZIuRHCZ7AVI4ITR-25" value="" style="endArrow=none;html=1;entryX=0.5;entryY=1;entryDx=0;entryDy=0;" edge="1" parent="1" target="iszLBZIuRHCZ7AVI4ITR-20">
          <mxGeometry width="50" height="50" relative="1" as="geometry">
            <mxPoint x="1185" y="270" as="sourcePoint" />
            <mxPoint x="1111.96" y="230" as="targetPoint" />
          </mxGeometry>
        </mxCell>
        <mxCell id="iszLBZIuRHCZ7AVI4ITR-26" value="" style="endArrow=none;html=1;entryX=0.5;entryY=1;entryDx=0;entryDy=0;" edge="1" parent="1" target="iszLBZIuRHCZ7AVI4ITR-19">
          <mxGeometry width="50" height="50" relative="1" as="geometry">
            <mxPoint x="1185" y="270" as="sourcePoint" />
            <mxPoint x="1245" y="230" as="targetPoint" />
          </mxGeometry>
        </mxCell>
        <mxCell id="iszLBZIuRHCZ7AVI4ITR-27" value="" style="endArrow=none;html=1;entryX=0.5;entryY=1;entryDx=0;entryDy=0;" edge="1" parent="1" target="iszLBZIuRHCZ7AVI4ITR-21">
          <mxGeometry width="50" height="50" relative="1" as="geometry">
            <mxPoint x="1185" y="270" as="sourcePoint" />
            <mxPoint x="1380" y="230" as="targetPoint" />
          </mxGeometry>
        </mxCell>
        <mxCell id="iszLBZIuRHCZ7AVI4ITR-28" value="" style="endArrow=none;html=1;entryX=0.442;entryY=1.038;entryDx=0;entryDy=0;entryPerimeter=0;" edge="1" parent="1" target="iszLBZIuRHCZ7AVI4ITR-22">
          <mxGeometry width="50" height="50" relative="1" as="geometry">
            <mxPoint x="1185" y="270" as="sourcePoint" />
            <mxPoint x="1510" y="230" as="targetPoint" />
          </mxGeometry>
        </mxCell>
        <mxCell id="iszLBZIuRHCZ7AVI4ITR-29" value="userId" style="ellipse;whiteSpace=wrap;html=1;" vertex="1" parent="1">
          <mxGeometry x="1360" y="270" width="200" height="80" as="geometry" />
        </mxCell>
        <mxCell id="iszLBZIuRHCZ7AVI4ITR-32" value="" style="endArrow=none;html=1;entryX=0;entryY=0.5;entryDx=0;entryDy=0;exitX=1;exitY=0.5;exitDx=0;exitDy=0;" edge="1" parent="1" source="iszLBZIuRHCZ7AVI4ITR-80" target="iszLBZIuRHCZ7AVI4ITR-29">
          <mxGeometry width="50" height="50" relative="1" as="geometry">
            <mxPoint x="1240.0000000000164" y="310" as="sourcePoint" />
            <mxPoint x="1290" y="270" as="targetPoint" />
          </mxGeometry>
        </mxCell>
        <mxCell id="iszLBZIuRHCZ7AVI4ITR-36" value="&lt;u&gt;id&lt;/u&gt;" style="ellipse;whiteSpace=wrap;html=1;" vertex="1" parent="1">
          <mxGeometry x="70" y="510" width="120" height="80" as="geometry" />
        </mxCell>
        <mxCell id="iszLBZIuRHCZ7AVI4ITR-37" value="userId" style="ellipse;whiteSpace=wrap;html=1;" vertex="1" parent="1">
          <mxGeometry x="210" y="510" width="120" height="80" as="geometry" />
        </mxCell>
        <mxCell id="iszLBZIuRHCZ7AVI4ITR-38" value="last_name" style="ellipse;whiteSpace=wrap;html=1;" vertex="1" parent="1">
          <mxGeometry x="480" y="510" width="120" height="80" as="geometry" />
        </mxCell>
        <mxCell id="iszLBZIuRHCZ7AVI4ITR-39" value="first_name" style="ellipse;whiteSpace=wrap;html=1;" vertex="1" parent="1">
          <mxGeometry x="345" y="510" width="120" height="80" as="geometry" />
        </mxCell>
        <mxCell id="iszLBZIuRHCZ7AVI4ITR-40" value="date_of_birth" style="ellipse;whiteSpace=wrap;html=1;" vertex="1" parent="1">
          <mxGeometry x="610" y="510" width="120" height="80" as="geometry" />
        </mxCell>
        <mxCell id="iszLBZIuRHCZ7AVI4ITR-41" value="user_address" style="ellipse;whiteSpace=wrap;html=1;" vertex="1" parent="1">
          <mxGeometry x="740" y="510" width="120" height="80" as="geometry" />
        </mxCell>
        <mxCell id="iszLBZIuRHCZ7AVI4ITR-42" value="" style="endArrow=none;html=1;entryX=0.5;entryY=0;entryDx=0;entryDy=0;exitX=0.5;exitY=1;exitDx=0;exitDy=0;" edge="1" parent="1" target="iszLBZIuRHCZ7AVI4ITR-36">
          <mxGeometry width="50" height="50" relative="1" as="geometry">
            <mxPoint x="320" y="460" as="sourcePoint" />
            <mxPoint x="390" y="580" as="targetPoint" />
          </mxGeometry>
        </mxCell>
        <mxCell id="iszLBZIuRHCZ7AVI4ITR-43" value="" style="endArrow=none;html=1;entryX=0.5;entryY=1;entryDx=0;entryDy=0;exitX=0.5;exitY=0;exitDx=0;exitDy=0;" edge="1" parent="1" source="iszLBZIuRHCZ7AVI4ITR-37">
          <mxGeometry width="50" height="50" relative="1" as="geometry">
            <mxPoint x="343.03999999999996" y="630" as="sourcePoint" />
            <mxPoint x="320" y="460" as="targetPoint" />
          </mxGeometry>
        </mxCell>
        <mxCell id="iszLBZIuRHCZ7AVI4ITR-44" value="" style="endArrow=none;html=1;entryX=0.5;entryY=0;entryDx=0;entryDy=0;exitX=0.5;exitY=1;exitDx=0;exitDy=0;" edge="1" parent="1" target="iszLBZIuRHCZ7AVI4ITR-39">
          <mxGeometry width="50" height="50" relative="1" as="geometry">
            <mxPoint x="320" y="460" as="sourcePoint" />
            <mxPoint x="271.96000000000004" y="590" as="targetPoint" />
          </mxGeometry>
        </mxCell>
        <mxCell id="iszLBZIuRHCZ7AVI4ITR-45" value="" style="endArrow=none;html=1;entryX=0.5;entryY=0;entryDx=0;entryDy=0;" edge="1" parent="1" target="iszLBZIuRHCZ7AVI4ITR-38">
          <mxGeometry width="50" height="50" relative="1" as="geometry">
            <mxPoint x="320" y="460" as="sourcePoint" />
            <mxPoint x="405" y="590" as="targetPoint" />
          </mxGeometry>
        </mxCell>
        <mxCell id="iszLBZIuRHCZ7AVI4ITR-46" value="" style="endArrow=none;html=1;entryX=0.5;entryY=0;entryDx=0;entryDy=0;exitX=0.5;exitY=1;exitDx=0;exitDy=0;" edge="1" parent="1" target="iszLBZIuRHCZ7AVI4ITR-40">
          <mxGeometry width="50" height="50" relative="1" as="geometry">
            <mxPoint x="320" y="460" as="sourcePoint" />
            <mxPoint x="540" y="590" as="targetPoint" />
          </mxGeometry>
        </mxCell>
        <mxCell id="iszLBZIuRHCZ7AVI4ITR-47" value="" style="endArrow=none;html=1;entryX=0.5;entryY=0;entryDx=0;entryDy=0;exitX=0.5;exitY=1;exitDx=0;exitDy=0;" edge="1" parent="1" target="iszLBZIuRHCZ7AVI4ITR-41">
          <mxGeometry width="50" height="50" relative="1" as="geometry">
            <mxPoint x="320" y="460" as="sourcePoint" />
            <mxPoint x="670" y="590" as="targetPoint" />
          </mxGeometry>
        </mxCell>
        <mxCell id="iszLBZIuRHCZ7AVI4ITR-49" value="" style="shape=link;html=1;" edge="1" parent="1">
          <mxGeometry width="100" relative="1" as="geometry">
            <mxPoint x="240" y="560" as="sourcePoint" />
            <mxPoint x="300" y="560" as="targetPoint" />
          </mxGeometry>
        </mxCell>
        <mxCell id="iszLBZIuRHCZ7AVI4ITR-51" value="gender" style="ellipse;whiteSpace=wrap;html=1;" vertex="1" parent="1">
          <mxGeometry x="780" y="410" width="120" height="80" as="geometry" />
        </mxCell>
        <mxCell id="iszLBZIuRHCZ7AVI4ITR-52" value="" style="endArrow=none;html=1;entryX=0.5;entryY=0;entryDx=0;entryDy=0;exitX=1;exitY=0.5;exitDx=0;exitDy=0;" edge="1" parent="1">
          <mxGeometry width="50" height="50" relative="1" as="geometry">
            <mxPoint x="380" y="420" as="sourcePoint" />
            <mxPoint x="780" y="450" as="targetPoint" />
          </mxGeometry>
        </mxCell>
        <mxCell id="iszLBZIuRHCZ7AVI4ITR-53" value="last_sign_in" style="ellipse;whiteSpace=wrap;html=1;" vertex="1" parent="1">
          <mxGeometry x="700" y="330" width="120" height="80" as="geometry" />
        </mxCell>
        <mxCell id="iszLBZIuRHCZ7AVI4ITR-54" value="" style="endArrow=none;html=1;entryX=0;entryY=0.5;entryDx=0;entryDy=0;exitX=1;exitY=0.5;exitDx=0;exitDy=0;" edge="1" parent="1" target="iszLBZIuRHCZ7AVI4ITR-53">
          <mxGeometry width="50" height="50" relative="1" as="geometry">
            <mxPoint x="380" y="420" as="sourcePoint" />
            <mxPoint x="790" y="460" as="targetPoint" />
          </mxGeometry>
        </mxCell>
        <mxCell id="iszLBZIuRHCZ7AVI4ITR-55" value="day" style="ellipse;whiteSpace=wrap;html=1;" vertex="1" parent="1">
          <mxGeometry x="525" y="650" width="90" height="60" as="geometry" />
        </mxCell>
        <mxCell id="iszLBZIuRHCZ7AVI4ITR-56" value="year" style="ellipse;whiteSpace=wrap;html=1;" vertex="1" parent="1">
          <mxGeometry x="725" y="650" width="90" height="60" as="geometry" />
        </mxCell>
        <mxCell id="iszLBZIuRHCZ7AVI4ITR-57" value="month" style="ellipse;whiteSpace=wrap;html=1;" vertex="1" parent="1">
          <mxGeometry x="625" y="650" width="90" height="60" as="geometry" />
        </mxCell>
        <mxCell id="iszLBZIuRHCZ7AVI4ITR-58" value="" style="endArrow=none;html=1;entryX=0.5;entryY=1;entryDx=0;entryDy=0;exitX=0.5;exitY=0;exitDx=0;exitDy=0;" edge="1" parent="1" source="iszLBZIuRHCZ7AVI4ITR-55" target="iszLBZIuRHCZ7AVI4ITR-40">
          <mxGeometry width="50" height="50" relative="1" as="geometry">
            <mxPoint x="550" y="610" as="sourcePoint" />
            <mxPoint x="600" y="560" as="targetPoint" />
          </mxGeometry>
        </mxCell>
        <mxCell id="iszLBZIuRHCZ7AVI4ITR-59" value="" style="endArrow=none;html=1;entryX=0.5;entryY=1;entryDx=0;entryDy=0;" edge="1" parent="1" source="iszLBZIuRHCZ7AVI4ITR-57" target="iszLBZIuRHCZ7AVI4ITR-40">
          <mxGeometry width="50" height="50" relative="1" as="geometry">
            <mxPoint x="580" y="660" as="sourcePoint" />
            <mxPoint x="680" y="600" as="targetPoint" />
          </mxGeometry>
        </mxCell>
        <mxCell id="iszLBZIuRHCZ7AVI4ITR-60" value="" style="endArrow=none;html=1;entryX=0.5;entryY=1;entryDx=0;entryDy=0;exitX=0.376;exitY=-0.029;exitDx=0;exitDy=0;exitPerimeter=0;" edge="1" parent="1" source="iszLBZIuRHCZ7AVI4ITR-56" target="iszLBZIuRHCZ7AVI4ITR-40">
          <mxGeometry width="50" height="50" relative="1" as="geometry">
            <mxPoint x="680" y="660" as="sourcePoint" />
            <mxPoint x="680" y="600" as="targetPoint" />
          </mxGeometry>
        </mxCell>
        <mxCell id="iszLBZIuRHCZ7AVI4ITR-61" value="" style="edgeStyle=entityRelationEdgeStyle;fontSize=12;html=1;endArrow=ERmandOne;startArrow=ERmandOne;entryX=0.44;entryY=-0.052;entryDx=0;entryDy=0;exitX=0.5;exitY=1;exitDx=0;exitDy=0;entryPerimeter=0;" edge="1" parent="1" source="iszLBZIuRHCZ7AVI4ITR-76" target="iszLBZIuRHCZ7AVI4ITR-85">
          <mxGeometry width="100" height="100" relative="1" as="geometry">
            <mxPoint x="300" y="280" as="sourcePoint" />
            <mxPoint x="320" y="380" as="targetPoint" />
          </mxGeometry>
        </mxCell>
        <mxCell id="iszLBZIuRHCZ7AVI4ITR-62" value="" style="edgeStyle=entityRelationEdgeStyle;fontSize=12;html=1;endArrow=ERmandOne;startArrow=ERmandOne;entryX=0;entryY=0.5;entryDx=0;entryDy=0;exitX=1;exitY=0.5;exitDx=0;exitDy=0;" edge="1" parent="1" source="iszLBZIuRHCZ7AVI4ITR-76" target="iszLBZIuRHCZ7AVI4ITR-80">
          <mxGeometry width="100" height="100" relative="1" as="geometry">
            <mxPoint x="360" y="240" as="sourcePoint" />
            <mxPoint x="1119.9999999999832" y="310" as="targetPoint" />
          </mxGeometry>
        </mxCell>
        <mxCell id="iszLBZIuRHCZ7AVI4ITR-64" value="&lt;u&gt;id&lt;/u&gt;" style="ellipse;whiteSpace=wrap;html=1;" vertex="1" parent="1">
          <mxGeometry x="-663.04" y="120" width="120" height="80" as="geometry" />
        </mxCell>
        <mxCell id="iszLBZIuRHCZ7AVI4ITR-65" value="author_id" style="ellipse;whiteSpace=wrap;html=1;" vertex="1" parent="1">
          <mxGeometry x="-513.04" y="120" width="120" height="80" as="geometry" />
        </mxCell>
        <mxCell id="iszLBZIuRHCZ7AVI4ITR-66" value="content" style="ellipse;whiteSpace=wrap;html=1;" vertex="1" parent="1">
          <mxGeometry x="-243.03999999999996" y="120" width="120" height="80" as="geometry" />
        </mxCell>
        <mxCell id="iszLBZIuRHCZ7AVI4ITR-67" value="title" style="ellipse;whiteSpace=wrap;html=1;" vertex="1" parent="1">
          <mxGeometry x="-378.03999999999996" y="120" width="120" height="80" as="geometry" />
        </mxCell>
        <mxCell id="iszLBZIuRHCZ7AVI4ITR-68" value="created_at" style="ellipse;whiteSpace=wrap;html=1;" vertex="1" parent="1">
          <mxGeometry x="-663.04" y="260" width="120" height="80" as="geometry" />
        </mxCell>
        <mxCell id="iszLBZIuRHCZ7AVI4ITR-69" value="" style="endArrow=none;html=1;" edge="1" parent="1">
          <mxGeometry width="50" height="50" relative="1" as="geometry">
            <mxPoint x="-383.03999999999996" y="239.99999999999977" as="sourcePoint" />
            <mxPoint x="-593" y="200" as="targetPoint" />
          </mxGeometry>
        </mxCell>
        <mxCell id="iszLBZIuRHCZ7AVI4ITR-70" value="" style="endArrow=none;html=1;entryX=0.5;entryY=1;entryDx=0;entryDy=0;" edge="1" parent="1" target="iszLBZIuRHCZ7AVI4ITR-65">
          <mxGeometry width="50" height="50" relative="1" as="geometry">
            <mxPoint x="-380" y="239.99999999999977" as="sourcePoint" />
            <mxPoint x="-573.04" y="205.03999999999996" as="targetPoint" />
          </mxGeometry>
        </mxCell>
        <mxCell id="iszLBZIuRHCZ7AVI4ITR-71" value="" style="endArrow=none;html=1;entryX=0.5;entryY=1;entryDx=0;entryDy=0;" edge="1" parent="1" target="iszLBZIuRHCZ7AVI4ITR-67">
          <mxGeometry width="50" height="50" relative="1" as="geometry">
            <mxPoint x="-378.03999999999996" y="239.99999999999977" as="sourcePoint" />
            <mxPoint x="-451.0799999999999" y="200" as="targetPoint" />
          </mxGeometry>
        </mxCell>
        <mxCell id="iszLBZIuRHCZ7AVI4ITR-72" value="" style="endArrow=none;html=1;entryX=0.5;entryY=1;entryDx=0;entryDy=0;" edge="1" parent="1" target="iszLBZIuRHCZ7AVI4ITR-66">
          <mxGeometry width="50" height="50" relative="1" as="geometry">
            <mxPoint x="-378.03999999999996" y="239.99999999999977" as="sourcePoint" />
            <mxPoint x="-318.03999999999996" y="200" as="targetPoint" />
          </mxGeometry>
        </mxCell>
        <mxCell id="iszLBZIuRHCZ7AVI4ITR-73" value="" style="endArrow=none;html=1;entryX=1;entryY=0.5;entryDx=0;entryDy=0;exitX=0;exitY=0.5;exitDx=0;exitDy=0;" edge="1" parent="1" target="iszLBZIuRHCZ7AVI4ITR-68" source="iszLBZIuRHCZ7AVI4ITR-75">
          <mxGeometry width="50" height="50" relative="1" as="geometry">
            <mxPoint x="-378.03999999999996" y="239.99999999999977" as="sourcePoint" />
            <mxPoint x="-183.03999999999996" y="200" as="targetPoint" />
          </mxGeometry>
        </mxCell>
        <mxCell id="iszLBZIuRHCZ7AVI4ITR-75" value="posts" style="shape=ext;margin=3;double=1;whiteSpace=wrap;html=1;align=center;" vertex="1" parent="1">
          <mxGeometry x="-425" y="240" width="100" height="40" as="geometry" />
        </mxCell>
        <mxCell id="iszLBZIuRHCZ7AVI4ITR-76" value="users" style="rounded=1;arcSize=10;whiteSpace=wrap;html=1;align=center;" vertex="1" parent="1">
          <mxGeometry x="260" y="200" width="100" height="40" as="geometry" />
        </mxCell>
        <mxCell id="iszLBZIuRHCZ7AVI4ITR-80" value="users_experience" style="rounded=1;arcSize=10;whiteSpace=wrap;html=1;align=center;" vertex="1" parent="1">
          <mxGeometry x="1130" y="270" width="100" height="40" as="geometry" />
        </mxCell>
        <mxCell id="iszLBZIuRHCZ7AVI4ITR-85" value="users_profile" style="rounded=1;arcSize=10;whiteSpace=wrap;html=1;align=center;" vertex="1" parent="1">
          <mxGeometry x="270" y="400" width="110" height="60" as="geometry" />
        </mxCell>
        <mxCell id="iszLBZIuRHCZ7AVI4ITR-86" value="" style="shape=link;html=1;" edge="1" parent="1">
          <mxGeometry width="100" relative="1" as="geometry">
            <mxPoint x="-503.03999999999996" y="170" as="sourcePoint" />
            <mxPoint x="-403.03999999999996" y="170" as="targetPoint" />
          </mxGeometry>
        </mxCell>
        <mxCell id="iszLBZIuRHCZ7AVI4ITR-88" value="updated_on" style="ellipse;whiteSpace=wrap;html=1;" vertex="1" parent="1">
          <mxGeometry x="-580" y="340" width="120" height="80" as="geometry" />
        </mxCell>
        <mxCell id="iszLBZIuRHCZ7AVI4ITR-89" value="" style="endArrow=none;html=1;entryX=0.5;entryY=0;entryDx=0;entryDy=0;exitX=0;exitY=0.5;exitDx=0;exitDy=0;" edge="1" parent="1" source="iszLBZIuRHCZ7AVI4ITR-75" target="iszLBZIuRHCZ7AVI4ITR-88">
          <mxGeometry width="50" height="50" relative="1" as="geometry">
            <mxPoint x="-415.0000000000002" y="270" as="sourcePoint" />
            <mxPoint x="-533.0399999999977" y="310" as="targetPoint" />
          </mxGeometry>
        </mxCell>
        <mxCell id="iszLBZIuRHCZ7AVI4ITR-91" value="&lt;u&gt;id&lt;/u&gt;" style="ellipse;whiteSpace=wrap;html=1;" vertex="1" parent="1">
          <mxGeometry x="-740" y="500" width="120" height="80" as="geometry" />
        </mxCell>
        <mxCell id="iszLBZIuRHCZ7AVI4ITR-92" value="post_id" style="ellipse;whiteSpace=wrap;html=1;" vertex="1" parent="1">
          <mxGeometry x="-633.04" y="460" width="120" height="80" as="geometry" />
        </mxCell>
        <mxCell id="iszLBZIuRHCZ7AVI4ITR-94" value="body" style="ellipse;whiteSpace=wrap;html=1;" vertex="1" parent="1">
          <mxGeometry x="-426.9599999999999" y="690" width="120" height="80" as="geometry" />
        </mxCell>
        <mxCell id="iszLBZIuRHCZ7AVI4ITR-95" value="created_at" style="ellipse;whiteSpace=wrap;html=1;" vertex="1" parent="1">
          <mxGeometry x="-645" y="600" width="120" height="80" as="geometry" />
        </mxCell>
        <mxCell id="iszLBZIuRHCZ7AVI4ITR-96" value="" style="endArrow=none;html=1;entryX=1;entryY=0.5;entryDx=0;entryDy=0;" edge="1" parent="1" target="iszLBZIuRHCZ7AVI4ITR-91">
          <mxGeometry width="50" height="50" relative="1" as="geometry">
            <mxPoint x="-364.99999999999994" y="579.9999999999998" as="sourcePoint" />
            <mxPoint x="-574.96" y="540" as="targetPoint" />
          </mxGeometry>
        </mxCell>
        <mxCell id="iszLBZIuRHCZ7AVI4ITR-97" value="" style="endArrow=none;html=1;entryX=0.5;entryY=1;entryDx=0;entryDy=0;" edge="1" parent="1" target="iszLBZIuRHCZ7AVI4ITR-92">
          <mxGeometry width="50" height="50" relative="1" as="geometry">
            <mxPoint x="-361.9600000000002" y="579.9999999999998" as="sourcePoint" />
            <mxPoint x="-555" y="545.04" as="targetPoint" />
          </mxGeometry>
        </mxCell>
        <mxCell id="iszLBZIuRHCZ7AVI4ITR-98" value="" style="endArrow=none;html=1;entryX=0.5;entryY=0;entryDx=0;entryDy=0;exitX=0.5;exitY=1;exitDx=0;exitDy=0;" edge="1" parent="1" target="iszLBZIuRHCZ7AVI4ITR-94" source="iszLBZIuRHCZ7AVI4ITR-101">
          <mxGeometry width="50" height="50" relative="1" as="geometry">
            <mxPoint x="-359.99999999999994" y="579.9999999999998" as="sourcePoint" />
            <mxPoint x="-433.0399999999999" y="540" as="targetPoint" />
          </mxGeometry>
        </mxCell>
        <mxCell id="iszLBZIuRHCZ7AVI4ITR-100" value="" style="endArrow=none;html=1;entryX=1;entryY=0.5;entryDx=0;entryDy=0;exitX=0;exitY=0.5;exitDx=0;exitDy=0;" edge="1" parent="1" source="iszLBZIuRHCZ7AVI4ITR-101" target="iszLBZIuRHCZ7AVI4ITR-95">
          <mxGeometry width="50" height="50" relative="1" as="geometry">
            <mxPoint x="-359.99999999999994" y="579.9999999999998" as="sourcePoint" />
            <mxPoint x="-164.99999999999997" y="540" as="targetPoint" />
          </mxGeometry>
        </mxCell>
        <mxCell id="iszLBZIuRHCZ7AVI4ITR-101" value="post_comments" style="shape=ext;margin=3;double=1;whiteSpace=wrap;html=1;align=center;" vertex="1" parent="1">
          <mxGeometry x="-406.96" y="580" width="100" height="40" as="geometry" />
        </mxCell>
        <mxCell id="iszLBZIuRHCZ7AVI4ITR-102" value="" style="shape=link;html=1;" edge="1" parent="1">
          <mxGeometry width="100" relative="1" as="geometry">
            <mxPoint x="-613.04" y="510" as="sourcePoint" />
            <mxPoint x="-530" y="510" as="targetPoint" />
          </mxGeometry>
        </mxCell>
        <mxCell id="iszLBZIuRHCZ7AVI4ITR-103" value="header" style="ellipse;whiteSpace=wrap;html=1;" vertex="1" parent="1">
          <mxGeometry x="-561.96" y="680" width="120" height="80" as="geometry" />
        </mxCell>
        <mxCell id="iszLBZIuRHCZ7AVI4ITR-104" value="" style="endArrow=none;html=1;entryX=0.5;entryY=0;entryDx=0;entryDy=0;exitX=0;exitY=0.5;exitDx=0;exitDy=0;" edge="1" parent="1" source="iszLBZIuRHCZ7AVI4ITR-101" target="iszLBZIuRHCZ7AVI4ITR-103">
          <mxGeometry width="50" height="50" relative="1" as="geometry">
            <mxPoint x="-396.9600000000002" y="610" as="sourcePoint" />
            <mxPoint x="-514.9999999999977" y="650" as="targetPoint" />
          </mxGeometry>
        </mxCell>
        <mxCell id="iszLBZIuRHCZ7AVI4ITR-105" value="userId" style="ellipse;whiteSpace=wrap;html=1;" vertex="1" parent="1">
          <mxGeometry x="-499.99999999999994" y="460" width="120" height="80" as="geometry" />
        </mxCell>
        <mxCell id="iszLBZIuRHCZ7AVI4ITR-106" value="" style="shape=link;html=1;" edge="1" parent="1">
          <mxGeometry width="100" relative="1" as="geometry">
            <mxPoint x="-481.52" y="510" as="sourcePoint" />
            <mxPoint x="-398.48000000000025" y="510" as="targetPoint" />
          </mxGeometry>
        </mxCell>
        <mxCell id="iszLBZIuRHCZ7AVI4ITR-107" value="Text" style="edgeLabel;html=1;align=center;verticalAlign=middle;resizable=0;points=[];" vertex="1" connectable="0" parent="iszLBZIuRHCZ7AVI4ITR-106">
          <mxGeometry x="-0.663" y="5" relative="1" as="geometry">
            <mxPoint as="offset" />
          </mxGeometry>
        </mxCell>
        <mxCell id="iszLBZIuRHCZ7AVI4ITR-108" value="" style="edgeStyle=entityRelationEdgeStyle;fontSize=12;html=1;endArrow=ERzeroToMany;startArrow=ERmandOne;entryX=1;entryY=0.5;entryDx=0;entryDy=0;exitX=0;exitY=0.5;exitDx=0;exitDy=0;" edge="1" parent="1" source="iszLBZIuRHCZ7AVI4ITR-76" target="iszLBZIuRHCZ7AVI4ITR-75">
          <mxGeometry width="100" height="100" relative="1" as="geometry">
            <mxPoint x="-180" y="300" as="sourcePoint" />
            <mxPoint x="-80" y="200" as="targetPoint" />
          </mxGeometry>
        </mxCell>
        <mxCell id="iszLBZIuRHCZ7AVI4ITR-110" value="" style="edgeStyle=entityRelationEdgeStyle;fontSize=12;html=1;endArrow=ERzeroToMany;startArrow=ERmandOne;entryX=1;entryY=0.5;entryDx=0;entryDy=0;exitX=0;exitY=0.5;exitDx=0;exitDy=0;" edge="1" parent="1" source="iszLBZIuRHCZ7AVI4ITR-76" target="iszLBZIuRHCZ7AVI4ITR-101">
          <mxGeometry width="100" height="100" relative="1" as="geometry">
            <mxPoint x="240" y="310" as="sourcePoint" />
            <mxPoint x="-345.0000000000002" y="350" as="targetPoint" />
          </mxGeometry>
        </mxCell>
        <mxCell id="iszLBZIuRHCZ7AVI4ITR-113" value="" style="edgeStyle=entityRelationEdgeStyle;fontSize=12;html=1;endArrow=ERzeroToMany;startArrow=ERmandOne;exitX=0.5;exitY=1;exitDx=0;exitDy=0;entryX=0.5;entryY=0;entryDx=0;entryDy=0;" edge="1" parent="1" source="iszLBZIuRHCZ7AVI4ITR-75" target="iszLBZIuRHCZ7AVI4ITR-105">
          <mxGeometry width="100" height="100" relative="1" as="geometry">
            <mxPoint x="-290" y="360" as="sourcePoint" />
            <mxPoint x="-190" y="260" as="targetPoint" />
          </mxGeometry>
        </mxCell>
      </root>
    </mxGraphModel>
  </diagram>
</mxfile>
